{
  "accessors": [
    {
      "bufferView": 2,
      "componentType": 5126,
      "count": 65532,
      "max": [
        5.791534423828125,
        1.9757442474365234,
        2.7256908416748047
      ],
      "min": [
        -6.861960411071777,
        -0.7756306529045105,
        0.7526988983154297
      ],
      "type": "VEC3"
    },
    {
      "bufferView": 2,
      "byteOffset": 786384,
      "componentType": 5126,
      "count": 65532,
      "max": [
        0.9999891519546509,
        0.9999544024467468,
        0.9999949336051941
      ],
      "min": [
        -0.9999474287033081,
        -0.9999843835830688,
        -0.9730170369148254
      ],
      "type": "VEC3"
    },
    {
      "bufferView": 1,
      "componentType": 5126,
      "count": 65532,
      "max": [
        0.9873369932174683,
        0.9960690140724182
      ],
      "min": [
        0.00800899975001812,
        0.0035490000154823065
      ],
      "type": "VEC2"
    },
    {
      "bufferView": 0,
      "componentType": 5125,
      "count": 358209,
      "type": "SCALAR"
    },
    {
      "bufferView": 2,
      "byteOffset": 1572768,
      "componentType": 5126,
      "count": 65532,
      "max": [
        4.326630592346191,
        1.414621353149414,
        2.451915740966797
      ],
      "min": [
        -3.7988996505737305,
        -1.9223685264587402,
        0.8078241348266602
      ],
      "type": "VEC3"
    },
    {
      "bufferView": 2,
      "byteOffset": 2359152,
      "componentType": 5126,
      "count": 65532,
      "max": [
        1.0,
        1.0,
        1.0
      ],
      "min": [
        -0.9996095895767212,
        -0.999994695186615,
        -0.9996077418327332
      ],
      "type": "VEC3"
    },
    {
      "bufferView": 1,
      "byteOffset": 524256,
      "componentType": 5126,
      "count": 65532,
      "max": [
        0.999983012676239,
        0.9993090033531189
      ],
      "min": [
        0.00015500000154133886,
        0.0011129999766126275
      ],
      "type": "VEC2"
    },
    {
      "bufferView": 0,
      "byteOffset": 1432836,
      "componentType": 5125,
      "count": 350607,
      "type": "SCALAR"
    },
    {
      "bufferView": 2,
      "byteOffset": 3145536,
      "componentType": 5126,
      "count": 65532,
      "max": [
        2.561476707458496,
        1.2122464179992676,
        2.5984630584716797
      ],
      "min": [
        -0.909276008605957,
        -2.0016965866088867,
        0.9738073348999023
      ],
      "type": "VEC3"
    },
    {
      "bufferView": 2,
      "byteOffset": 3931920,
      "componentType": 5126,
      "count": 65532,
      "max": [
        1.0,
        0.9999979138374329,
        0.9999976754188538
      ],
      "min": [
        -0.9999129772186279,
        -0.9999998807907104,
        -0.9999969601631165
      ],
      "type": "VEC3"
    },
    {
      "bufferView": 1,
      "byteOffset": 1048512,
      "componentType": 5126,
      "count": 65532,
      "max": [
        0.9999979734420776,
        0.9989950060844421
      ],
      "min": [
        0.0,
        1.9999999494757503e-05
      ],
      "type": "VEC2"
    },
    {
      "bufferView": 0,
      "byteOffset": 2835264,
      "componentType": 5125,
      "count": 347340,
      "type": "SCALAR"
    },
    {
      "bufferView": 2,
      "byteOffset": 4718304,
      "componentType": 5126,
      "count": 65532,
      "max": [
        0.12804508209228516,
        -0.2078067660331726,
        3.088075637817383
      ],
      "min": [
        -3.388369560241699,
        -2.069796562194824,
        1.6343450546264648
      ],
      "type": "VEC3"
    },
    {
      "bufferView": 2,
      "byteOffset": 5504688,
      "componentType": 5126,
      "count": 65532,
      "max": [
        0.9999639987945557,
        0.9997942447662354,
        0.9999947547912598
      ],
      "min": [
        -0.9999899864196777,
        -0.9999642968177795,
        -0.9999879598617554
      ],
      "type": "VEC3"
    },
    {
      "bufferView": 1,
      "byteOffset": 1572768,
      "componentType": 5126,
      "count": 65532,
      "max": [
        0.99993497133255,
        0.9959390163421631
      ],
      "min": [
        0.0006070000235922635,
        0.0014949999749660492
      ],
      "type": "VEC2"
    },
    {
      "bufferView": 0,
      "byteOffset": 4224624,
      "componentType": 5125,
      "count": 357285,
      "type": "SCALAR"
    },
    {
      "bufferView": 2,
      "byteOffset": 6291072,
      "componentType": 5126,
      "count": 65532,
      "max": [
        3.760928153991699,
        1.8127732276916504,
        2.828105926513672
      ],
      "min": [
        -3.983933448791504,
        -2.190032958984375,
        1.3122119903564453
      ],
      "type": "VEC3"
    },
    {
      "bufferView": 2,
      "byteOffset": 7077456,
      "componentType": 5126,
      "count": 65532,
      "max": [
        0.9999996423721313,
        0.9999999403953552,
        1.0
      ],
      "min": [
        -0.9999999403953552,
        -0.9999999403953552,
        -0.9999999403953552
      ],
      "type": "VEC3"
    },
    {
      "bufferView": 1,
      "byteOffset": 2097024,
      "componentType": 5126,
      "count": 65532,
      "max": [
        1.0,
        0.9976009726524353
      ],
      "min": [
        5.0999999075429514e-05,
        0.0
      ],
      "type": "VEC2"
    },
    {
      "bufferView": 0,
      "byteOffset": 5653764,
      "componentType": 5125,
      "count": 329532,
      "type": "SCALAR"
    },
    {
      "bufferView": 2,
      "byteOffset": 7863840,
      "componentType": 5126,
      "count": 65534,
      "max": [
        3.721358299255371,
        1.7917060852050781,
        2.788743019104004
      ],
      "min": [
        -6.825011253356934,
        -1.560713768005371,
        0.9325408935546875
      ],
      "type": "VEC3"
    },
    {
      "bufferView": 2,
      "byteOffset": 8650248,
      "componentType": 5126,
      "count": 65534,
      "max": [
        0.9999490976333618,
        1.0,
        1.0
      ],
      "min": [
        -1.0,
        -0.9999967813491821,
        -1.0
      ],
      "type": "VEC3"
    },
    {
      "bufferView": 1,
      "byteOffset": 2621280,
      "componentType": 5126,
      "count": 65534,
      "max": [
        0.999987006187439,
        0.9989399909973145
      ],
      "min": [
        0.0006380000268109143,
        0.00029200001154094934
      ],
      "type": "VEC2"
    },
    {
      "bufferView": 0,
      "byteOffset": 6971892,
      "componentType": 5125,
      "count": 338376,
      "type": "SCALAR"
    },
    {
      "bufferView": 2,
      "byteOffset": 9436656,
      "componentType": 5126,
      "count": 65532,
      "max": [
        5.468748092651367,
        1.4149153232574463,
        2.5725250244140625
      ],
      "min": [
        -5.608046531677246,
        -1.9462347030639648,
        0.6160488128662109
      ],
      "type": "VEC3"
    },
    {
      "bufferView": 2,
      "byteOffset": 10223040,
      "componentType": 5126,
      "count": 65532,
      "max": [
        0.9999528527259827,
        0.9999710917472839,
        0.999984085559845
      ],
      "min": [
        -0.9999933242797852,
        -0.999994695186615,
        -0.9995429515838623
      ],
      "type": "VEC3"
    },
    {
      "bufferView": 1,
      "byteOffset": 3145552,
      "componentType": 5126,
      "count": 65532,
      "max": [
        0.9976440072059631,
        0.999580979347229
      ],
      "min": [
        0.00014400000509340316,
        9.200000204145908e-05
      ],
      "type": "VEC2"
    },
    {
      "bufferView": 0,
      "byteOffset": 8325396,
      "componentType": 5125,
      "count": 348090,
      "type": "SCALAR"
    },
    {
      "bufferView": 2,
      "byteOffset": 11009424,
      "componentType": 5126,
      "count": 65532,
      "max": [
        6.623780250549316,
        1.9696123600006104,
        2.6974897384643555
      ],
      "min": [
        -5.866969108581543,
        -1.5534296035766602,
        0.7745952606201172
      ],
      "type": "VEC3"
    },
    {
      "bufferView": 2,
      "byteOffset": 11795808,
      "componentType": 5126,
      "count": 65532,
      "max": [
        1.0,
        0.9999997615814209,
        0.999991238117218
      ],
      "min": [
        -0.9999517202377319,
        -0.9999550580978394,
        -0.9996826648712158
      ],
      "type": "VEC3"
    },
    {
      "bufferView": 1,
      "byteOffset": 3669808,
      "componentType": 5126,
      "count": 65532,
      "max": [
        0.9999939799308777,
        0.9994620084762573
      ],
      "min": [
        0.000666000007186085,
        7.999999797903001e-05
      ],
      "type": "VEC2"
    },
    {
      "bufferView": 0,
      "byteOffset": 9717756,
      "componentType": 5125,
      "count": 337437,
      "type": "SCALAR"
    },
    {
      "bufferView": 2,
      "byteOffset": 12582192,
      "componentType": 5126,
      "count": 64926,
      "max": [
        3.335934638977051,
        1.2447922229766846,
        3.088075637817383
      ],
      "min": [
        -5.422560691833496,
        -2.183736801147461,
        0.6854743957519531
      ],
      "type": "VEC3"
    },
    {
      "bufferView": 2,
      "byteOffset": 13361304,
      "componentType": 5126,
      "count": 64926,
      "max": [
        1.0,
        1.0,
        1.0
      ],
      "min": [
        -1.0,
        -1.0,
        -1.0
      ],
      "type": "VEC3"
    },
    {
      "bufferView": 1,
      "byteOffset": 4194064,
      "componentType": 5126,
      "count": 64926,
      "max": [
        1.0,
        0.9994469881057739
      ],
      "min": [
        0.00013699999544769526,
        6.800000119255856e-05
      ],
      "type": "VEC2"
    },
    {
      "bufferView": 0,
      "byteOffset": 11067504,
      "componentType": 5125,
      "count": 303891,
      "type": "SCALAR"
    }
  ],
  "asset": {
    "extras": {
      "author": "Kinch (https://sketchfab.com/djparavoz)",
      "license": "CC-BY-4.0 (http://creativecommons.org/licenses/by/4.0/)",
      "source": "https://sketchfab.com/3d-models/garbage-quenn-e5ded8995f574d5a8b720073fb29622f",
      "title": "Garbage_Quenn"
    },
    "generator": "Sketchfab-13.8.0",
    "version": "2.0"
  },
  "bufferViews": [
    {
      "buffer": 0,
      "byteLength": 12283068,
      "name": "floatBufferViews",
      "target": 34963
    },
    {
      "buffer": 0,
      "byteLength": 4713472,
      "byteOffset": 12283068,
      "byteStride": 8,
      "name": "floatBufferViews",
      "target": 34962
    },
    {
      "buffer": 0,
      "byteLength": 14140416,
      "byteOffset": 16996540,
      "byteStride": 12,
      "name": "floatBufferViews",
      "target": 34962
    }
  ],
  "buffers": [
    {
      "byteLength": 31136956,
      "uri": "scene.bin"
    }
  ],
  "images": [
    {
      "uri": "textures/3DModel_baseColor.jpeg"
    }
  ],
  "materials": [
    {
      "doubleSided": true,
      "name": "3DModel",
      "pbrMetallicRoughness": {
        "baseColorTexture": {
          "index": 0
        },
        "metallicFactor": 0.0
      }
    }
  ],
  "meshes": [
    {
      "name": "GarbageQueen_HP_3DModel_0",
      "primitives": [
        {
          "attributes": {
            "NORMAL": 1,
            "POSITION": 0,
            "TEXCOORD_0": 2
          },
          "indices": 3,
          "material": 0,
          "mode": 4
        }
      ]
    },
    {
      "name": "GarbageQueen_HP_3DModel_0",
      "primitives": [
        {
          "attributes": {
            "NORMAL": 5,
            "POSITION": 4,
            "TEXCOORD_0": 6
          },
          "indices": 7,
          "material": 0,
          "mode": 4
        }
      ]
    },
    {
      "name": "GarbageQueen_HP_3DModel_0",
      "primitives": [
        {
          "attributes": {
            "NORMAL": 9,
            "POSITION": 8,
            "TEXCOORD_0": 10
          },
          "indices": 11,
          "material": 0,
          "mode": 4
        }
      ]
    },
    {
      "name": "GarbageQueen_HP_3DModel_0",
      "primitives": [
        {
          "attributes": {
            "NORMAL": 13,
            "POSITION": 12,
            "TEXCOORD_0": 14
          },
          "indices": 15,
          "material": 0,
          "mode": 4
        }
      ]
    },
    {
      "name": "GarbageQueen_HP_3DModel_0",
      "primitives": [
        {
          "attributes": {
            "NORMAL": 17,
            "POSITION": 16,
            "TEXCOORD_0": 18
          },
          "indices": 19,
          "material": 0,
          "mode": 4
        }
      ]
    },
    {
      "name": "GarbageQueen_HP_3DModel_0",
      "primitives": [
        {
          "attributes": {
            "NORMAL": 21,
            "POSITION": 20,
            "TEXCOORD_0": 22
          },
          "indices": 23,
          "material": 0,
          "mode": 4
        }
      ]
    },
    {
      "name": "GarbageQueen_HP_3DModel_0",
      "primitives": [
        {
          "attributes": {
            "NORMAL": 25,
            "POSITION": 24,
            "TEXCOORD_0": 26
          },
          "indices": 27,
          "material": 0,
          "mode": 4
        }
      ]
    },
    {
      "name": "GarbageQueen_HP_3DModel_0",
      "primitives": [
        {
          "attributes": {
            "NORMAL": 29,
            "POSITION": 28,
            "TEXCOORD_0": 30
          },
          "indices": 31,
          "material": 0,
          "mode": 4
        }
      ]
    },
    {
      "name": "GarbageQueen_HP_3DModel_0",
      "primitives": [
        {
          "attributes": {
            "NORMAL": 33,
            "POSITION": 32,
            "TEXCOORD_0": 34
          },
          "indices": 35,
          "material": 0,
          "mode": 4
        }
      ]
    }
  ],
  "nodes": [
    {
      "children": [
        1
      ],
      "matrix": [
        -0.9830957055091858,
        -0.18275824189186096,
        0.011058089323341807,
        0.0,
        -1.1275702593849246e-16,
        -0.06039619818329789,
        -0.9981744885444641,
        0.0,
        0.18309247493743896,
        -0.9813010096549988,
        0.059375241398811125,
        0.0,
        0.0,
        0.0,
        0.0,
        1.0
      ],
      "name": "Sketchfab_model"
    },
    {
      "children": [
        2
      ],
      "matrix": [
        0.009999999776482582,
        0.0,
        0.0,
        0.0,
        0.0,
        -0.009999999776482582,
        0.0,
        0.0,
        0.0,
        0.0,
        -0.009999999776482582,
        0.0,
        0.0,
        0.0,
        0.0,
        1.0
      ],
      "name": "Garbage_Quenn.fbx"
    },
    {
      "children": [
        3
      ],
      "name": "RootNode"
    },
    {
      "children": [
        4,
        5,
        6,
        7,
        8,
        9,
        10,
        11,
        12
      ],
      "matrix": [
        -1.6292067961387602e-05,
        99.99999999999862,
        -3.447354751662246e-06,
        0.0,
        -66.54879901248023,
        -1.3415310997514453e-05,
        -74.64086599092548,
        0.0,
        -74.64086599092491,
        -9.866367415302728e-06,
        66.54879901248148,
        0.0,
        2.384185791015625e-05,
        3.725290298461914e-07,
        -1.1920928955078125e-05,
        1.0
      ],
      "name": "GarbageQueen_HP"
    },
    {
      "mesh": 0,
      "name": "GarbageQueen_HP_3DModel_0"
    },
    {
      "mesh": 1,
      "name": "GarbageQueen_HP_3DModel_0"
    },
    {
      "mesh": 2,
      "name": "GarbageQueen_HP_3DModel_0"
    },
    {
      "mesh": 3,
      "name": "GarbageQueen_HP_3DModel_0"
    },
    {
      "mesh": 4,
      "name": "GarbageQueen_HP_3DModel_0"
    },
    {
      "mesh": 5,
      "name": "GarbageQueen_HP_3DModel_0"
    },
    {
      "mesh": 6,
      "name": "GarbageQueen_HP_3DModel_0"
    },
    {
      "mesh": 7,
      "name": "GarbageQueen_HP_3DModel_0"
    },
    {
      "mesh": 8,
      "name": "GarbageQueen_HP_3DModel_0"
    }
  ],
  "samplers": [
    {
      "magFilter": 9729,
      "minFilter": 9987,
      "wrapS": 10497,
      "wrapT": 10497
    }
  ],
  "scene": 0,
  "scenes": [
    {
      "name": "Sketchfab_Scene",
      "nodes": [
        0
      ]
    }
  ],
  "textures": [
    {
      "sampler": 0,
      "source": 0
    }
  ]
}
