{
  "accessors": [
    {
      "bufferView": 2,
      "componentType": 5126,
      "count": 65532,
      "max": [
        0.8918413519859314,
        0.4990585744380951,
        2.0012426376342773
      ],
      "min": [
        -1.2734752893447876,
        -0.7802107334136963,
        -1.4436744451522827
      ],
      "type": "VEC3"
    },
    {
      "bufferView": 2,
      "byteOffset": 786384,
      "componentType": 5126,
      "count": 65532,
      "max": [
        0.9999920725822449,
        1.0,
        0.9999551177024841
      ],
      "min": [
        -0.9999992251396179,
        -0.9999282360076904,
        -0.9999967813491821
      ],
      "type": "VEC3"
    },
    {
      "bufferView": 1,
      "componentType": 5126,
      "count": 65532,
      "max": [
        0.9908646941184998,
        0.9999709129333496
      ],
      "min": [
        0.0013272594660520554,
        3.5390094126341864e-05
      ],
      "type": "VEC2"
    },
    {
      "bufferView": 1,
      "byteOffset": 524256,
      "componentType": 5126,
      "count": 65532,
      "max": [
        0.9908646941184998,
        0.9999709129333496
      ],
      "min": [
        0.0013272594660520554,
        3.5390094126341864e-05
      ],
      "type": "VEC2"
    },
    {
      "bufferView": 1,
      "byteOffset": 1048512,
      "componentType": 5126,
      "count": 65532,
      "max": [
        0.9908646941184998,
        0.9999709129333496
      ],
      "min": [
        0.0013272594660520554,
        3.5390094126341864e-05
      ],
      "type": "VEC2"
    },
    {
      "bufferView": 1,
      "byteOffset": 1572768,
      "componentType": 5126,
      "count": 65532,
      "max": [
        0.9908646941184998,
        0.9999709129333496
      ],
      "min": [
        0.0013272594660520554,
        3.5390094126341864e-05
      ],
      "type": "VEC2"
    },
    {
      "bufferView": 1,
      "byteOffset": 2097024,
      "componentType": 5126,
      "count": 65532,
      "max": [
        0.9908646941184998,
        0.9999709129333496
      ],
      "min": [
        0.0013272594660520554,
        3.5390094126341864e-05
      ],
      "type": "VEC2"
    },
    {
      "bufferView": 0,
      "componentType": 5125,
      "count": 251070,
      "type": "SCALAR"
    },
    {
      "bufferView": 2,
      "byteOffset": 1572768,
      "componentType": 5126,
      "count": 39699,
      "max": [
        0.9012545943260193,
        0.45409825444221497,
        1.9514082670211792
      ],
      "min": [
        -1.2281439304351807,
        -0.7681684494018555,
        -1.4163155555725098
      ],
      "type": "VEC3"
    },
    {
      "bufferView": 2,
      "byteOffset": 2049156,
      "componentType": 5126,
      "count": 39699,
      "max": [
        0.999999463558197,
        1.0,
        0.9999544024467468
      ],
      "min": [
        -0.9999967813491821,
        -0.9999282360076904,
        -0.9999304413795471
      ],
      "type": "VEC3"
    },
    {
      "bufferView": 1,
      "byteOffset": 2621280,
      "componentType": 5126,
      "count": 39699,
      "max": [
        0.990444004535675,
        0.9999697208404541
      ],
      "min": [
        0.0011733740102499723,
        0.01595345325767994
      ],
      "type": "VEC2"
    },
    {
      "bufferView": 1,
      "byteOffset": 2938872,
      "componentType": 5126,
      "count": 39699,
      "max": [
        0.990444004535675,
        0.9999697208404541
      ],
      "min": [
        0.0011733740102499723,
        0.01595345325767994
      ],
      "type": "VEC2"
    },
    {
      "bufferView": 1,
      "byteOffset": 3256464,
      "componentType": 5126,
      "count": 39699,
      "max": [
        0.990444004535675,
        0.9999697208404541
      ],
      "min": [
        0.0011733740102499723,
        0.01595345325767994
      ],
      "type": "VEC2"
    },
    {
      "bufferView": 1,
      "byteOffset": 3574056,
      "componentType": 5126,
      "count": 39699,
      "max": [
        0.990444004535675,
        0.9999697208404541
      ],
      "min": [
        0.0011733740102499723,
        0.01595345325767994
      ],
      "type": "VEC2"
    },
    {
      "bufferView": 1,
      "byteOffset": 3891648,
      "componentType": 5126,
      "count": 39699,
      "max": [
        0.990444004535675,
        0.9999697208404541
      ],
      "min": [
        0.0011733740102499723,
        0.01595345325767994
      ],
      "type": "VEC2"
    },
    {
      "bufferView": 0,
      "byteOffset": 1004280,
      "componentType": 5125,
      "count": 161310,
      "type": "SCALAR"
    }
  ],
  "asset": {
    "extras": {
      "author": "Karolisbutenas (https://sketchfab.com/Karolisbutenas)",
      "license": "CC-BY-NC-SA-4.0 (http://creativecommons.org/licenses/by-nc-sa/4.0/)",
      "source": "https://sketchfab.com/3d-models/rusty-skip-1e6a8e2968004137be67af663994343c",
      "title": "Rusty skip"
    },
    "generator": "Sketchfab-14.27.0",
    "version": "2.0"
  },
  "bufferViews": [
    {
      "buffer": 0,
      "byteLength": 1649520,
      "name": "floatBufferViews",
      "target": 34963
    },
    {
      "buffer": 0,
      "byteLength": 4209240,
      "byteOffset": 1649520,
      "byteStride": 8,
      "name": "floatBufferViews",
      "target": 34962
    },
    {
      "buffer": 0,
      "byteLength": 2525544,
      "byteOffset": 5858760,
      "byteStride": 12,
      "name": "floatBufferViews",
      "target": 34962
    }
  ],
  "buffers": [
    {
      "byteLength": 8384304,
      "uri": "scene.bin"
    }
  ],
  "extensionsUsed": [
    "KHR_materials_unlit"
  ],
  "images": [
    {
      "uri": "textures/material_0_baseColor.jpeg"
    }
  ],
  "materials": [
    {
      "extensions": {
        "KHR_materials_unlit": {}
      },
      "name": "material_0",
      "pbrMetallicRoughness": {
        "baseColorTexture": {
          "index": 0
        },
        "metallicFactor": 0.0
      }
    }
  ],
  "meshes": [
    {
      "name": "Object_0",
      "primitives": [
        {
          "attributes": {
            "NORMAL": 1,
            "POSITION": 0,
            "TEXCOORD_0": 2,
            "TEXCOORD_1": 3,
            "TEXCOORD_2": 4,
            "TEXCOORD_3": 5,
            "TEXCOORD_4": 6
          },
          "indices": 7,
          "material": 0,
          "mode": 4
        }
      ]
    },
    {
      "name": "Object_1",
      "primitives": [
        {
          "attributes": {
            "NORMAL": 9,
            "POSITION": 8,
            "TEXCOORD_0": 10,
            "TEXCOORD_1": 11,
            "TEXCOORD_2": 12,
            "TEXCOORD_3": 13,
            "TEXCOORD_4": 14
          },
          "indices": 15,
          "material": 0,
          "mode": 4
        }
      ]
    }
  ],
  "nodes": [
    {
      "children": [
        1
      ],
      "matrix": [
        1.0,
        0.0,
        0.0,
        0.0,
        0.0,
        2.220446049250313e-16,
        -1.0,
        0.0,
        0.0,
        1.0,
        2.220446049250313e-16,
        0.0,
        0.0,
        0.0,
        0.0,
        1.0
      ],
      "name": "Sketchfab_model"
    },
    {
      "children": [
        2
      ],
      "name": "root"
    },
    {
      "children": [
        3
      ],
      "matrix": [
        1.0,
        0.0,
        0.0,
        0.0,
        0.0,
        2.220446049250313e-16,
        1.0,
        0.0,
        0.0,
        -1.0,
        2.220446049250313e-16,
        0.0,
        0.0,
        0.0,
        0.0,
        1.0
      ],
      "name": "GLTF_SceneRootNode"
    },
    {
      "children": [
        4,
        5
      ],
      "name": "_0"
    },
    {
      "mesh": 0,
      "name": "Object_4"
    },
    {
      "mesh": 1,
      "name": "Object_5"
    }
  ],
  "samplers": [
    {
      "magFilter": 9729,
      "minFilter": 9987,
      "wrapS": 10497,
      "wrapT": 10497
    }
  ],
  "scene": 0,
  "scenes": [
    {
      "name": "Sketchfab_Scene",
      "nodes": [
        0
      ]
    }
  ],
  "textures": [
    {
      "sampler": 0,
      "source": 0
    }
  ]
}
